<svg xmlns="http://www.w3.org/2000/svg" xmlns:xlink="http://www.w3.org/1999/xlink" viewBox="0,0,256,256" width="96px" height="96px" fill-rule="nonzero"><g fill="#ffffff" fill-rule="nonzero" stroke="none" stroke-width="1" stroke-linecap="butt" stroke-linejoin="miter" stroke-miterlimit="10" stroke-dasharray="" stroke-dashoffset="0" font-family="none" font-weight="none" font-size="none" text-anchor="none" style="mix-blend-mode: normal"><g transform="scale(16,16)"><path d="M8,2c-1.83203,0 -3.42578,1.27344 -3.86719,3.02344c-1.07812,0.16016 -1.93359,1.01953 -2.10156,2.13672c-1.19531,0.40625 -2.03125,1.54688 -2.03125,2.83984c0,1.65234 1.34766,3 3,3h10c1.65234,0 3,-1.34766 3,-3c0,-0.89844 -0.39844,-1.73828 -1.08594,-2.30469c0.05859,-0.23047 0.08594,-0.46484 0.08594,-0.69531c0,-1.82031 -1.61328,-3.30469 -3.50781,-2.95312c-0.70312,-1.25391 -2.02734,-2.04687 -3.49219,-2.04687zM8,3c1.20703,0 2.29297,0.71875 2.76563,1.82813l0.17578,0.42969l0.4375,-0.14844c0.22656,-0.07422 0.42969,-0.10937 0.62109,-0.10937c1.10156,0 2,0.89844 2,2c0,0.23438 -0.04687,0.47266 -0.14062,0.71094l-0.14062,0.38281l0.34375,0.21875c0.58594,0.37109 0.9375,1 0.9375,1.6875c0,1.10156 -0.89844,2 -2,2h-10c-1.10156,0 -2,-0.89844 -2,-2c0,-0.94922 0.67578,-1.77344 1.60156,-1.96094l0.41016,-0.11719l-0.01172,-0.42187c0,-0.82812 0.67188,-1.5 1.44922,-1.50391l0.07422,-0.49609l0.02734,0.50781h0.43359l0.0625,-0.43359c0.20703,-1.46875 1.47656,-2.57422 2.95313,-2.57422zM8,5v3h-2l2.5,2.5l2.5,-2.5h-2v-3z"></path></g></g></svg>