<svg xmlns="http://www.w3.org/2000/svg" xmlns:xlink="http://www.w3.org/1999/xlink" viewBox="0,0,256,256" width="96px" height="96px" fill-rule="nonzero"><g fill="#ffffff" fill-rule="nonzero" stroke="none" stroke-width="1" stroke-linecap="butt" stroke-linejoin="miter" stroke-miterlimit="10" stroke-dasharray="" stroke-dashoffset="0" font-family="none" font-weight="none" font-size="none" text-anchor="none" style="mix-blend-mode: normal"><g transform="scale(16,16)"><path d="M11.73438,2c-0.09766,0 -0.19531,0.01172 -0.29297,0.03125l-5.25391,1.125c-0.69141,0.14844 -1.1875,0.76563 -1.1875,1.46875v5.65625c-0.29687,-0.17187 -0.63281,-0.28125 -1,-0.28125c-1.09766,0 -2,0.90234 -2,2c0,1.09766 0.90234,2 2,2c1.09766,0 2,-0.90234 2,-2v-5.59375l6,-1.28906v4.16406c-0.29687,-0.17187 -0.63281,-0.28125 -1,-0.28125c-1.09766,0 -2,0.90234 -2,2c0,1.09766 0.90234,2 2,2c1.09766,0 2,-0.90234 2,-2v-7.70703c0,-0.40234 -0.17187,-0.78125 -0.46484,-1.01953c-0.22266,-0.17578 -0.50391,-0.27344 -0.80078,-0.27344zM11.80859,3.00781c0.04297,0.00781 0.07031,0.02344 0.09766,0.04688c0.05078,0.03906 0.09375,0.10547 0.09375,0.23828v0.80078l-6,1.28906v-0.75781c0,-0.23828 0.16016,-0.4375 0.39453,-0.48828l5.25781,-1.12891c0.0625,-0.01172 0.11328,-0.01172 0.15625,0zM11,10c0.55859,0 1,0.44141 1,1c0,0.55859 -0.44141,1 -1,1c-0.55859,0 -1,-0.44141 -1,-1c0,-0.55859 0.44141,-1 1,-1zM4,11c0.55859,0 1,0.44141 1,1c0,0.55859 -0.44141,1 -1,1c-0.55859,0 -1,-0.44141 -1,-1c0,-0.55859 0.44141,-1 1,-1z"></path></g></g></svg>